<svg width="326" height="228" viewBox="0 0 326 228" fill="none" xmlns="http://www.w3.org/2000/svg">
<path fill-rule="evenodd" clip-rule="evenodd" d="M635.352 74.2226L548.489 23.954L461.641 74.2225V174.763L548.518 225.025L635.352 174.763V74.2226ZM637.928 176.248V72.7375L548.489 20.9784L459.066 72.7375V176.248L548.518 228L637.928 176.248Z" fill="url(#paint0_linear_133_1647)"/>
<path fill-rule="evenodd" clip-rule="evenodd" d="M532.676 -10.2557L445.813 -60.5243L358.965 -10.2558V90.2846L445.842 140.546L532.676 90.285V-10.2557ZM535.251 91.77V-11.7409L445.813 -63.5L356.389 -11.7409V91.77L445.842 143.522L535.251 91.77Z" fill="url(#paint1_linear_133_1647)"/>
<path fill-rule="evenodd" clip-rule="evenodd" d="M407.379 74.2226L320.517 23.954L233.668 74.2225V174.763L320.545 225.025L407.379 174.763L407.379 74.2226ZM409.955 176.248L409.955 72.7375L320.517 20.9784L231.093 72.7375V176.248L320.546 228L409.955 176.248Z" fill="url(#paint2_linear_133_1647)"/>
<path fill-rule="evenodd" clip-rule="evenodd" d="M279.03 74.2226L192.168 23.954L105.319 74.2225V174.763L192.196 225.025L279.03 174.763V74.2226ZM281.606 176.248V72.7375L192.168 20.9784L102.744 72.7375V176.248L192.197 228L281.606 176.248Z" fill="url(#paint3_linear_133_1647)"/>
<path fill-rule="evenodd" clip-rule="evenodd" d="M176.357 -10.2557L89.494 -60.5243L2.64576 -10.2559L2.64575 90.2846L89.5227 140.546L176.357 90.2849V-10.2557ZM178.932 91.77V-11.7409L89.4939 -63.5L0.070317 -11.7409L0.0703125 91.77L89.5231 143.522L178.932 91.77Z" fill="url(#paint4_linear_133_1647)"/>
<defs>
<linearGradient id="paint0_linear_133_1647" x1="274.355" y1="243.943" x2="274.355" y2="14.4071" gradientUnits="userSpaceOnUse">
<stop stop-color="white"/>
<stop offset="1" stop-color="white" stop-opacity="0"/>
</linearGradient>
<linearGradient id="paint1_linear_133_1647" x1="274.355" y1="243.943" x2="274.355" y2="14.4071" gradientUnits="userSpaceOnUse">
<stop stop-color="white"/>
<stop offset="1" stop-color="white" stop-opacity="0"/>
</linearGradient>
<linearGradient id="paint2_linear_133_1647" x1="274.355" y1="243.943" x2="274.355" y2="14.4071" gradientUnits="userSpaceOnUse">
<stop stop-color="white"/>
<stop offset="1" stop-color="white" stop-opacity="0"/>
</linearGradient>
<linearGradient id="paint3_linear_133_1647" x1="274.355" y1="243.943" x2="274.355" y2="14.4071" gradientUnits="userSpaceOnUse">
<stop stop-color="white"/>
<stop offset="1" stop-color="white" stop-opacity="0"/>
</linearGradient>
<linearGradient id="paint4_linear_133_1647" x1="274.355" y1="243.943" x2="274.355" y2="14.4071" gradientUnits="userSpaceOnUse">
<stop stop-color="white"/>
<stop offset="1" stop-color="white" stop-opacity="0"/>
</linearGradient>
</defs>
</svg>
