<svg width="21" height="23" viewBox="0 0 21 23" fill="none" xmlns="http://www.w3.org/2000/svg">
<path d="M18.8389 1.68802C17.0262 -0.124693 14.0519 -0.124693 12.2392 1.68802L1.92726 12C-0.568718 14.496 -0.568717 18.5786 1.92726 21.0745C4.42323 23.5705 8.50582 23.5705 11.0018 21.0745L20.4888 11.5875L18.8389 9.9376L9.35188 19.4246C7.74781 21.0287 5.18124 21.0287 3.57717 19.4246C1.9731 17.8205 1.9731 15.254 3.57717 13.6499L13.8891 3.33793C14.8103 2.41673 16.2678 2.41673 17.189 3.33793C18.1102 4.25913 18.1102 5.71656 17.189 6.63776L8.52692 15.2998C8.29021 15.5365 7.93867 15.5365 7.70196 15.2998C7.46525 15.0631 7.46525 14.7116 7.70196 14.4749L15.5391 6.63776L13.8891 4.98785L6.05205 12.8249C4.92263 13.9544 4.92263 15.8203 6.05205 16.9497C7.18147 18.0792 9.04742 18.0792 10.1768 16.9497L18.8389 8.28768C20.6516 6.47497 20.6516 3.50072 18.8389 1.68802Z" fill="#0B955E"/>
</svg>
