<svg width="170" height="133" viewBox="0 0 170 133" fill="none" xmlns="http://www.w3.org/2000/svg">
<path d="M85 0.736328C38.1225 0.736328 0 38.8588 0 85.7363C0 132.614 38.1225 170.736 85 170.736C131.878 170.736 170 132.614 170 85.7363C170 68.4388 164.814 52.3333 155.889 38.9033L143.562 51.23C149.555 61.345 153 73.1563 153 85.7363C153 123.221 122.485 153.736 85 153.736C47.515 153.736 17 123.221 17 85.7363C17 48.2513 47.515 17.7363 85 17.7363C97.58 17.7363 109.391 21.1818 119.506 27.1743L131.833 14.8477C118.403 5.92266 102.298 0.736328 85 0.736328ZM157.084 4.90332C154.876 4.96912 152.78 5.89204 151.24 7.47656L78.9902 79.7266C78.1745 80.5098 77.5231 81.4479 77.0745 82.486C76.6258 83.5241 76.3888 84.6413 76.3773 85.7722C76.3657 86.903 76.58 88.0248 77.0074 89.0718C77.4349 90.1188 78.067 91.07 78.8666 91.8697C79.6663 92.6694 80.6175 93.3014 81.6645 93.7289C82.7115 94.1563 83.8333 94.3706 84.9642 94.3591C86.095 94.3476 87.2122 94.1105 88.2503 93.6619C89.2884 93.2132 90.2265 92.5619 91.0098 91.7461L163.26 19.4961C164.488 18.3022 165.327 16.765 165.667 15.0861C166.006 13.4072 165.831 11.6648 165.163 10.0873C164.496 8.50986 163.367 7.17086 161.925 6.24581C160.484 5.32077 158.796 4.85283 157.084 4.90332ZM85 26.2363C52.19 26.2363 25.5 52.9263 25.5 85.7363C25.5 118.546 52.19 145.236 85 145.236C117.81 145.236 144.5 118.546 144.5 85.7363C144.5 75.4938 141.909 65.8457 137.361 57.4307L124.57 70.2222C126.482 75.0247 127.5 80.2538 127.5 85.7363C127.5 109.154 108.418 128.236 85 128.236C61.5825 128.236 42.5 109.154 42.5 85.7363C42.5 62.3188 61.5825 43.2363 85 43.2363C90.4825 43.2363 95.7117 44.254 100.514 46.1665L113.306 33.375C104.891 28.8275 95.2425 26.2363 85 26.2363ZM85 51.7363C66.2575 51.7363 51 66.9938 51 85.7363C51 104.479 66.2575 119.736 85 119.736C103.743 119.736 119 104.479 119 85.7363C119 82.6763 118.577 79.7425 117.854 76.9375L97.0278 97.7642C93.7978 100.952 89.5475 102.736 85 102.736C80.4525 102.736 76.2022 100.952 72.9722 97.7642C66.3422 91.1342 66.3422 80.3385 72.9722 73.7085L93.7988 52.8818C90.9938 52.1593 88.06 51.7363 85 51.7363Z" fill="url(#paint0_linear_80_1263)"/>
<defs>
<linearGradient id="paint0_linear_80_1263" x1="-53.7024" y1="0.736334" x2="252.045" y2="223.387" gradientUnits="userSpaceOnUse">
<stop offset="0.0614048" stop-color="#F5F8F6"/>
<stop offset="0.822618" stop-color="#D8E4DC"/>
</linearGradient>
</defs>
</svg>
