<svg width="170" height="133" viewBox="0 0 170 133" fill="none" xmlns="http://www.w3.org/2000/svg">
<path d="M84.9092 0.736802C83.3697 0.760853 81.9027 1.39498 80.8304 2.49991C79.7581 3.60483 79.1682 5.0902 79.1903 6.62974V25.9955V45.104L2.80145 135.125C-3.82918 142.942 2.09698 155.746 12.3482 155.746H157.652C167.903 155.746 173.829 142.942 167.199 135.125L90.8097 45.104V30.141L115.879 21.8273C118.254 21.0411 119.858 18.8222 119.858 16.3202C119.858 13.8181 118.261 11.588 115.887 10.7979L87.7082 1.41006C87.6956 1.40498 87.683 1.39993 87.6704 1.39493C86.8185 0.950659 85.8699 0.724534 84.9092 0.736802ZM85 56.2318L121.326 99.0407L100.031 90.2126C98.7143 89.6317 97.1602 89.9034 96.037 90.8329L85.8926 99.5097L78.6078 87.8524C77.6008 86.2644 75.5849 85.6045 73.842 86.3017L51.9042 95.2356L85 56.2318Z" fill="url(#paint0_linear_80_1270)"/>
<defs>
<linearGradient id="paint0_linear_80_1270" x1="-50.7605" y1="8.4097" x2="271.124" y2="237.117" gradientUnits="userSpaceOnUse">
<stop offset="0.12543" stop-color="#F5F8F6"/>
<stop offset="0.790318" stop-color="#D8E4DC"/>
</linearGradient>
</defs>
</svg>
