<svg width="386" height="70" viewBox="0 0 386 70" fill="none" xmlns="http://www.w3.org/2000/svg">
<path d="M336.046 30.4547L373.463 58.916L365.482 102.954L320.074 118.657L282.649 90.1979L290.63 46.1601L336.046 30.4547Z" stroke="rgba(255,255,255, .2)" stroke-width="2"/>
<path d="M294.05 -13.9462L331.467 14.5151L323.486 58.553L278.078 74.2562L240.653 45.797L248.634 1.75917L294.05 -13.9462Z" stroke="rgba(255,255,255, .2)" stroke-width="2"/>
<path d="M227.948 13.8082L265.366 42.2695L257.384 86.3074L211.976 102.011L174.551 73.5514L182.533 29.5136L227.948 13.8082Z" stroke="rgba(255,255,255, .2)" stroke-width="2"/>
<path d="M167.089 4.43613L204.506 32.8974L196.525 76.9353L151.117 92.6386L113.692 64.1793L121.673 20.1415L167.089 4.43613Z" stroke="rgba(255,255,255, .2)" stroke-width="2"/>
<path d="M125.093 -39.9643L162.51 -11.503L154.529 32.5349L109.121 48.2382L71.6957 19.7789L79.6771 -24.2589L125.093 -39.9643Z" stroke="rgba(255,255,255, .2)" stroke-width="2"/>
<path d="M58.991 -12.2104L96.4086 16.2509L88.4271 60.2888L43.0191 75.9921L5.59411 47.5328L13.5756 3.49501L58.991 -12.2104Z" stroke="rgba(255,255,255, .2)" stroke-width="2"/>
</svg>
