<svg width="60" height="60" viewBox="0 0 60 60" fill="none" xmlns="http://www.w3.org/2000/svg">
<path d="M30 7.5C27.6562 7.5 25.661 8.44642 24.3799 9.8877C23.0987 11.329 22.5 13.1771 22.5 15C22.5 16.8229 23.0987 18.671 24.3799 20.1123C25.661 21.5536 27.6562 22.5 30 22.5C32.3437 22.5 34.339 21.5536 35.6201 20.1123C36.9013 18.671 37.5 16.8229 37.5 15C37.5 13.1771 36.9013 11.329 35.6201 9.8877C34.339 8.44642 32.3437 7.5 30 7.5ZM13.75 10C11.8229 10 10.1402 10.7902 9.06738 11.9971C7.99458 13.204 7.5 14.7396 7.5 16.25C7.5 17.7604 7.99458 19.296 9.06738 20.5029C10.1402 21.7098 11.8229 22.5 13.75 22.5C15.6771 22.5 17.3598 21.7098 18.4326 20.5029C19.5054 19.296 20 17.7604 20 16.25C20 14.7396 19.5054 13.204 18.4326 11.9971C17.3598 10.7902 15.6771 10 13.75 10ZM46.25 10C44.3229 10 42.6402 10.7902 41.5674 11.9971C40.4946 13.204 40 14.7396 40 16.25C40 17.7604 40.4946 19.296 41.5674 20.5029C42.6402 21.7098 44.3229 22.5 46.25 22.5C48.1771 22.5 49.8598 21.7098 50.9326 20.5029C52.0054 19.296 52.5 17.7604 52.5 16.25C52.5 14.7396 52.0054 13.204 50.9326 11.9971C49.8598 10.7902 48.1771 10 46.25 10ZM30 11.25C31.4062 11.25 32.2235 11.7098 32.8174 12.3779C33.4112 13.046 33.75 14.0104 33.75 15C33.75 15.9896 33.4112 16.954 32.8174 17.6221C32.2235 18.2902 31.4062 18.75 30 18.75C28.5937 18.75 27.7765 18.2902 27.1826 17.6221C26.5888 16.954 26.25 15.9896 26.25 15C26.25 14.0104 26.5888 13.046 27.1826 12.3779C27.7765 11.7098 28.5937 11.25 30 11.25ZM13.75 13.75C14.7396 13.75 15.2444 14.0536 15.6299 14.4873C16.0154 14.921 16.25 15.5729 16.25 16.25C16.25 16.9271 16.0154 17.579 15.6299 18.0127C15.2444 18.4464 14.7396 18.75 13.75 18.75C12.7604 18.75 12.2556 18.4464 11.8701 18.0127C11.4846 17.579 11.25 16.9271 11.25 16.25C11.25 15.5729 11.4846 14.921 11.8701 14.4873C12.2556 14.0536 12.7604 13.75 13.75 13.75ZM46.25 13.75C47.2396 13.75 47.7444 14.0536 48.1299 14.4873C48.5154 14.921 48.75 15.5729 48.75 16.25C48.75 16.9271 48.5154 17.579 48.1299 18.0127C47.7444 18.4464 47.2396 18.75 46.25 18.75C45.2604 18.75 44.7556 18.4464 44.3701 18.0127C43.9846 17.579 43.75 16.9271 43.75 16.25C43.75 15.5729 43.9846 14.921 44.3701 14.4873C44.7556 14.0536 45.2604 13.75 46.25 13.75ZM9.375 25C6.9625 25 5 26.9625 5 29.375V37.5C5 43.0125 9.4875 47.5 15 47.5C15.8875 47.5 16.7507 47.3881 17.5757 47.1631C17.0507 46.0381 16.6627 44.8367 16.4502 43.5742C15.9877 43.6867 15.5 43.75 15 43.75C11.55 43.75 8.75 40.95 8.75 37.5V29.375C8.75 29.025 9.025 28.75 9.375 28.75H16.2866C16.4116 27.325 16.9622 26.0375 17.8247 25H9.375ZM23.125 25C20.7313 25 18.75 26.9813 18.75 29.375V41.25C18.75 47.4409 23.8091 52.5 30 52.5C36.1909 52.5 41.25 47.4409 41.25 41.25V29.375C41.25 26.9813 39.2687 25 36.875 25H23.125ZM42.1753 25C43.0378 26.0375 43.5884 27.325 43.7134 28.75H50.625C50.975 28.75 51.25 29.025 51.25 29.375V37.5C51.25 40.95 48.45 43.75 45 43.75C44.5 43.75 44.0123 43.6867 43.5498 43.5742C43.3373 44.8367 42.9493 46.0381 42.4243 47.1631C43.2493 47.3881 44.1125 47.5 45 47.5C50.5125 47.5 55 43.0125 55 37.5V29.375C55 26.9625 53.0375 25 50.625 25H42.1753ZM23.125 28.75H27.5757L28.7231 31.0449C28.7281 31.0537 28.7352 31.0606 28.7402 31.0693C28.739 31.0768 28.7342 31.0814 28.7329 31.0889L27.5146 38.1201C27.4696 38.3789 27.5353 38.645 27.6953 38.8525L29.2578 40.8838C29.4341 41.115 29.7087 41.25 30 41.25C30.2912 41.25 30.5659 41.115 30.7422 40.8838L32.3047 38.8525C32.4647 38.645 32.5303 38.3789 32.4853 38.1201L31.2671 31.0889C31.2658 31.0814 31.2623 31.0768 31.2598 31.0693C31.2648 31.0606 31.2719 31.0549 31.2769 31.0449L32.4219 28.75H36.875C37.2438 28.75 37.5 29.0062 37.5 29.375V41.25C37.5 45.4141 34.1641 48.75 30 48.75C25.8359 48.75 22.5 45.4141 22.5 41.25V29.375C22.5 29.0062 22.7562 28.75 23.125 28.75Z" fill="#77BC1F"/>
</svg>
