<?xml version="1.0" encoding="utf-8"?>
<!-- Svg Vector Icons : http://www.onlinewebfonts.com/icon -->
<!DOCTYPE svg PUBLIC "-//W3C//DTD SVG 1.1//EN" "http://www.w3.org/Graphics/SVG/1.1/DTD/svg11.dtd">
<svg version="1.1" xmlns="http://www.w3.org/2000/svg" xmlns:xlink="http://www.w3.org/1999/xlink" x="0px" y="0px" viewBox="0 0 256 256" enable-background="new 0 0 256 256" xml:space="preserve">
<metadata> Svg Vector Icons : http://www.onlinewebfonts.com/icon </metadata>
<g><g><g><path fill="#000000" d="M78.5,246L78.5,246c-4.9,0-9.6-2-13.1-5.5c-3.5-3.5-5.5-8.3-5.5-13.1c0-4.6,1.8-8.9,5-12.1l67.4-67.4c4.5-5.2,7.4-13.1,7.4-20.2c0-7-2.8-14.3-7.7-20L64.9,40.5c-3.2-3.2-5-7.5-5-12.1c0-4.9,2-9.6,5.5-13.1c6.8-6.9,18.6-7.2,25.2-0.6l100.7,100.7c3.1,3.1,4.8,7.5,4.8,12.2c-0.4,3.3-1.6,9.4-4.8,12.6L90.6,241.1C87.4,244.2,83.1,246,78.5,246z M78.5,21c-1.9,0-3.8,0.8-5.2,2.2c-1.4,1.4-2.2,3.3-2.2,5.2c0,1.6,0.6,3.1,1.7,4.2l67.4,67.4c6.9,7.9,10.7,17.9,10.7,27.5c0,9.9-3.9,20.3-10.5,27.8l-67.7,67.7c-1.1,1.1-1.7,2.6-1.7,4.2c0,1.9,0.8,3.8,2.2,5.2c1.4,1.4,3.3,2.2,5.2,2.2l0,0c1.6,0,3.1-0.6,4.2-1.7l100.7-100.7c0.5-0.7,1.3-3.7,1.6-5.6c0-0.5-0.3-2.2-1.6-3.5L82.7,22.7C81.6,21.6,80.1,21,78.5,21z"/></g><g></g><g></g><g></g><g></g><g></g><g></g><g></g><g></g><g></g><g></g><g></g><g></g><g></g><g></g><g></g></g></g>
</svg>