<?xml version="1.0" encoding="utf-8"?>
<!-- Svg Vector Icons : http://www.onlinewebfonts.com/icon -->
<!DOCTYPE svg PUBLIC "-//W3C//DTD SVG 1.1//EN" "http://www.w3.org/Graphics/SVG/1.1/DTD/svg11.dtd">
<svg version="1.1" xmlns="http://www.w3.org/2000/svg" xmlns:xlink="http://www.w3.org/1999/xlink" x="0px" y="0px" viewBox="0 0 256 256" enable-background="new 0 0 256 256" xml:space="preserve">
<metadata> Svg Vector Icons : http://www.onlinewebfonts.com/icon </metadata>
<g><g><path fill="#000000" d="M58.2,232l12.5,11.4c1.3,1.7,3.6,2.6,5.4,2.6c2.2,0,4-0.8,5.8-2.6l115.9-110.2c1.8-1.3,2.7-3.4,2.7-5.1c0-2.1-0.9-4.2-2.7-5.5L81.8,12.5c-1.8-1.7-3.6-2.5-5.8-2.5c-1.8,0-4,0.8-5.4,2.5L58.2,24.4c-1.8,1.3-2.7,3.4-2.7,5.1c0,2.1,0.9,4.2,2.7,5.5l97.7,93.2L58.2,221c-1.8,1.7-2.7,3.4-2.7,5.5C55.6,228.6,56.4,230.3,58.2,232"/></g></g>
</svg>