<svg width="1258" height="330" viewBox="0 0 1258 330" fill="none" xmlns="http://www.w3.org/2000/svg">
<path d="M104.359 -156.428C188.948 -187.012 301.192 -185.543 325.978 -53.5854C363.999 148.838 585.569 231.526 764.987 112.594C944.405 -6.33784 937.585 -56.9285 995.454 -6.38189" stroke="#75A557" stroke-width="2" stroke-dasharray="13 13"/>
<path d="M577.71 424.486C648.494 473.628 752.774 499.904 808.211 383.837C893.252 205.79 1118.75 183.79 1255.57 338.075C1392.4 492.361 1373.63 537.52 1439.65 504.971" stroke="#75A557" stroke-width="2" stroke-dasharray="13 13"/>
<path d="M536.756 424.616C486.354 442.839 419.473 441.964 404.704 363.336C382.049 242.721 250.025 193.451 143.118 264.317C36.2106 335.183 40.2742 365.328 5.793 335.21" stroke="#75A557" stroke-width="2" stroke-dasharray="13 13"/>
<path d="M881.24 0.118155L877.33 -6.51451L881.24 -13.146H889.061L892.971 -6.51451L889.061 0.118074L881.24 0.118155ZM891.854 -17.8853H878.447L871.742 -6.51443L878.447 4.85729H891.854L898.557 -6.51443L891.854 -17.8853Z" fill="#75A557"/>
<path d="M888.167 288.92L884.506 281.898L888.877 275.295L896.911 275.714L900.572 282.735L896.201 289.339L888.167 288.92ZM900.034 270.996L886.262 270.278L878.766 281.599L885.044 293.639L898.816 294.356L906.31 283.034L900.034 270.996Z" fill="#75A557"/>
<path d="M256.966 242.41L251.492 231.911L258.028 222.039L270.039 222.665L275.514 233.163L268.978 243.036L256.966 242.41ZM274.709 215.61L254.117 214.537L242.91 231.464L252.297 249.465L272.888 250.538L284.093 233.61L274.709 215.61Z" fill="#75A557"/>
<rect x="888.398" y="277.492" width="9.0886" height="8.60751" transform="rotate(2.98317 888.398 277.492)" fill="#84B565"/>
<path d="M257.312 225.323L271 227.5L273.5 235L256.643 238.176L257.312 225.323Z" fill="#84B565"/>
</svg>
