<svg width="60" height="60" viewBox="0 0 60 60" fill="none" xmlns="http://www.w3.org/2000/svg">
<path d="M8.0957 6.22325C8.00484 6.22562 7.91427 6.2346 7.82471 6.25011H5.625C5.37654 6.24659 5.12986 6.2925 4.89929 6.38515C4.66873 6.4778 4.45888 6.61535 4.28193 6.78981C4.10499 6.96427 3.96449 7.17215 3.86858 7.40138C3.77268 7.63062 3.7233 7.87662 3.7233 8.12511C3.7233 8.37359 3.77268 8.6196 3.86858 8.84883C3.96449 9.07806 4.10499 9.28595 4.28193 9.46041C4.45888 9.63487 4.66873 9.77242 4.89929 9.86507C5.12986 9.95772 5.37654 10.0036 5.625 10.0001H6.25V33.8771C4.15812 34.1966 2.5 35.9521 2.5 38.1251V51.8751C2.50005 52.3724 2.69761 52.8493 3.04923 53.2009C3.40085 53.5525 3.87773 53.7501 4.375 53.7501H39.375C39.8723 53.7501 40.3491 53.5525 40.7008 53.2009C41.0524 52.8493 41.2499 52.3724 41.25 51.8751V38.1251C41.25 35.9521 39.5919 34.1966 37.5 33.8771V10.0001H38.125C38.3735 10.0036 38.6201 9.95772 38.8507 9.86507C39.0813 9.77242 39.2911 9.63487 39.4681 9.46041C39.645 9.28595 39.7855 9.07806 39.8814 8.84883C39.9773 8.6196 40.0267 8.37359 40.0267 8.12511C40.0267 7.87662 39.9773 7.63062 39.8814 7.40138C39.7855 7.17215 39.645 6.96427 39.4681 6.78981C39.2911 6.61535 39.0813 6.4778 38.8507 6.38515C38.6201 6.2925 38.3735 6.24659 38.125 6.25011H35.9326C35.7313 6.21704 35.526 6.21704 35.3247 6.25011H8.43262C8.32135 6.23103 8.20859 6.22204 8.0957 6.22325ZM10 10.0001H33.75V35.6251C33.75 36.1224 33.9476 36.5993 34.2992 36.9509C34.6508 37.3025 35.1277 37.5001 35.625 37.5001H36.875C37.2438 37.5001 37.5 37.7563 37.5 38.1251V50.0001H25V42.5001C25 41.8101 24.44 41.2501 23.75 41.2501H20C19.31 41.2501 18.75 41.8101 18.75 42.5001V50.0001H6.25V38.1251C6.25 37.7563 6.50619 37.5001 6.875 37.5001H8.125C8.62226 37.5001 9.09915 37.3025 9.45077 36.9509C9.80239 36.5993 9.99995 36.1224 10 35.6251V10.0001ZM16.25 15.0001C15.56 15.0001 15 15.5601 15 16.2501V18.7501C15 19.4401 15.56 20.0001 16.25 20.0001H18.75C19.44 20.0001 20 19.4401 20 18.7501V16.2501C20 15.5601 19.44 15.0001 18.75 15.0001H16.25ZM25 15.0001C24.31 15.0001 23.75 15.5601 23.75 16.2501V18.7501C23.75 19.4401 24.31 20.0001 25 20.0001H27.5C28.19 20.0001 28.75 19.4401 28.75 18.7501V16.2501C28.75 15.5601 28.19 15.0001 27.5 15.0001H25ZM40 15.0001V18.7501H50.625C52.35 18.7501 53.75 20.1501 53.75 21.8751V50.0001H43.75V52.5001C43.75 52.9414 43.6605 53.3576 43.5205 53.7501H55.625C56.6625 53.7501 57.5 52.9126 57.5 51.8751V21.8751C57.5 18.0876 54.4125 15.0001 50.625 15.0001H40ZM16.25 23.7501C15.56 23.7501 15 24.3101 15 25.0001V27.5001C15 28.1901 15.56 28.7501 16.25 28.7501H18.75C19.44 28.7501 20 28.1901 20 27.5001V25.0001C20 24.3101 19.44 23.7501 18.75 23.7501H16.25ZM25 23.7501C24.31 23.7501 23.75 24.3101 23.75 25.0001V27.5001C23.75 28.1901 24.31 28.7501 25 28.7501H27.5C28.19 28.7501 28.75 28.1901 28.75 27.5001V25.0001C28.75 24.3101 28.19 23.7501 27.5 23.7501H25ZM46.25 23.7501C45.56 23.7501 45 24.3101 45 25.0001V27.5001C45 28.1901 45.56 28.7501 46.25 28.7501H48.75C49.44 28.7501 50 28.1901 50 27.5001V25.0001C50 24.3101 49.44 23.7501 48.75 23.7501H46.25ZM16.25 32.5001C15.56 32.5001 15 33.0601 15 33.7501V36.2501C15 36.9401 15.56 37.5001 16.25 37.5001H18.75C19.44 37.5001 20 36.9401 20 36.2501V33.7501C20 33.0601 19.44 32.5001 18.75 32.5001H16.25ZM25 32.5001C24.31 32.5001 23.75 33.0601 23.75 33.7501V36.2501C23.75 36.9401 24.31 37.5001 25 37.5001H27.5C28.19 37.5001 28.75 36.9401 28.75 36.2501V33.7501C28.75 33.0601 28.19 32.5001 27.5 32.5001H25ZM46.25 32.5001C45.56 32.5001 45 33.0601 45 33.7501V36.2501C45 36.9401 45.56 37.5001 46.25 37.5001H48.75C49.44 37.5001 50 36.9401 50 36.2501V33.7501C50 33.0601 49.44 32.5001 48.75 32.5001H46.25ZM11.25 41.2501C10.56 41.2501 10 41.8101 10 42.5001V45.0001C10 45.6901 10.56 46.2501 11.25 46.2501H13.75C14.44 46.2501 15 45.6901 15 45.0001V42.5001C15 41.8101 14.44 41.2501 13.75 41.2501H11.25ZM30 41.2501C29.31 41.2501 28.75 41.8101 28.75 42.5001V45.0001C28.75 45.6901 29.31 46.2501 30 46.2501H32.5C33.19 46.2501 33.75 45.6901 33.75 45.0001V42.5001C33.75 41.8101 33.19 41.2501 32.5 41.2501H30ZM46.25 41.2501C45.56 41.2501 45 41.8101 45 42.5001V45.0001C45 45.6901 45.56 46.2501 46.25 46.2501H48.75C49.44 46.2501 50 45.6901 50 45.0001V42.5001C50 41.8101 49.44 41.2501 48.75 41.2501H46.25Z" fill="#77BC1F"/>
</svg>
