<svg width="60" height="60" viewBox="0 0 60 60" fill="none" xmlns="http://www.w3.org/2000/svg">
<path d="M49.3392 7.48312C49.2722 7.48524 49.2054 7.49094 49.139 7.50021H39.3758C39.1274 7.4967 38.8807 7.5426 38.6501 7.63525C38.4195 7.7279 38.2097 7.86545 38.0327 8.03991C37.8558 8.21437 37.7153 8.42225 37.6194 8.65149C37.5235 8.88072 37.4741 9.12673 37.4741 9.37521C37.4741 9.6237 37.5235 9.8697 37.6194 10.0989C37.7153 10.3282 37.8558 10.5361 38.0327 10.7105C38.2097 10.885 38.4195 11.0225 38.6501 11.1152C38.8807 11.2078 39.1274 11.2537 39.3758 11.2502H44.8494L37.3494 18.7502H33.1258C32.8018 18.7501 32.4833 18.8339 32.2013 18.9935C31.9194 19.1531 31.6836 19.383 31.5169 19.6609L28.3138 25.0002H23.1258C22.8018 25.0001 22.4833 25.0839 22.2013 25.2435C21.9194 25.4031 21.6836 25.633 21.5169 25.9109L18.3138 31.2502H13.1258C12.8018 31.2501 12.4833 31.3339 12.2013 31.4935C11.9194 31.6531 11.6836 31.883 11.5169 32.1609L7.76693 38.4109C7.64027 38.6221 7.55647 38.8563 7.52032 39.1C7.48416 39.3436 7.49635 39.592 7.5562 39.831C7.61604 40.07 7.72237 40.2948 7.86911 40.4926C8.01585 40.6905 8.20012 40.8575 8.41141 40.9842C8.6227 41.1108 8.85686 41.1946 9.10054 41.2308C9.34421 41.2669 9.59261 41.2547 9.83156 41.1948C10.0705 41.135 10.2953 41.0286 10.4932 40.8819C10.6911 40.7351 10.8581 40.5509 10.9847 40.3396L14.1878 35.0002H19.3758C19.6998 35.0003 20.0183 34.9165 20.3003 34.7569C20.5822 34.5973 20.818 34.3674 20.9847 34.0896L24.1878 28.7502H29.3758C29.6998 28.7503 30.0183 28.6665 30.3003 28.5069C30.5822 28.3473 30.818 28.1174 30.9847 27.8396L34.1878 22.5002H38.1258C38.6231 22.5001 39.0999 22.3025 39.4515 21.9509L47.5008 13.9016V19.3752C47.4973 19.6237 47.5432 19.8704 47.6359 20.1009C47.7285 20.3315 47.8661 20.5413 48.0405 20.7183C48.215 20.8952 48.4229 21.0357 48.6521 21.1316C48.8813 21.2275 49.1273 21.2769 49.3758 21.2769C49.6243 21.2769 49.8703 21.2275 50.0995 21.1316C50.3288 21.0357 50.5367 20.8952 50.7111 20.7183C50.8856 20.5413 51.0231 20.3315 51.1158 20.1009C51.2084 19.8704 51.2543 19.6237 51.2508 19.3752V9.5925C51.2847 9.32422 51.2601 9.0518 51.1789 8.79391C51.0976 8.53601 50.9615 8.29875 50.7799 8.09838C50.5983 7.89802 50.3755 7.7393 50.1269 7.6331C49.8782 7.5269 49.6095 7.47574 49.3392 7.48312ZM49.3465 24.9734C48.8497 24.9811 48.3762 25.1858 48.0301 25.5424C47.6841 25.899 47.4937 26.3783 47.5008 26.8752V50.6252C47.4973 50.8737 47.5432 51.1203 47.6359 51.3509C47.7285 51.5815 47.8661 51.7913 48.0405 51.9683C48.215 52.1452 48.4229 52.2857 48.6521 52.3816C48.8813 52.4775 49.1273 52.5269 49.3758 52.5269C49.6243 52.5269 49.8703 52.4775 50.0995 52.3816C50.3288 52.2857 50.5367 52.1452 50.7111 51.9683C50.8856 51.7913 51.0231 51.5815 51.1158 51.3509C51.2084 51.1203 51.2543 50.8737 51.2508 50.6252V26.8752C51.2544 26.6243 51.2076 26.3751 51.1131 26.1426C51.0187 25.9101 50.8785 25.6989 50.7009 25.5215C50.5233 25.3441 50.312 25.2042 50.0793 25.1101C49.8467 25.0159 49.5975 24.9694 49.3465 24.9734ZM39.3465 27.4734C38.8497 27.4811 38.3762 27.6858 38.0301 28.0424C37.6841 28.399 37.4937 28.8783 37.5008 29.3752V50.6252C37.4973 50.8737 37.5432 51.1203 37.6359 51.3509C37.7285 51.5815 37.8661 51.7913 38.0405 51.9683C38.215 52.1452 38.4229 52.2857 38.6521 52.3816C38.8813 52.4775 39.1273 52.5269 39.3758 52.5269C39.6243 52.5269 39.8703 52.4775 40.0995 52.3816C40.3288 52.2857 40.5367 52.1452 40.7111 51.9683C40.8856 51.7913 41.0231 51.5815 41.1158 51.3509C41.2084 51.1203 41.2543 50.8737 41.2508 50.6252V29.3752C41.2544 29.1243 41.2076 28.8751 41.1131 28.6426C41.0187 28.4101 40.8785 28.1989 40.7009 28.0215C40.5233 27.8441 40.312 27.7042 40.0793 27.6101C39.8467 27.5159 39.5975 27.4694 39.3465 27.4734ZM29.3465 32.4734C28.8497 32.4811 28.3762 32.6858 28.0301 33.0424C27.6841 33.399 27.4937 33.8783 27.5008 34.3752V50.6252C27.4973 50.8737 27.5432 51.1203 27.6359 51.3509C27.7285 51.5815 27.8661 51.7913 28.0405 51.9683C28.215 52.1452 28.4229 52.2857 28.6521 52.3816C28.8813 52.4775 29.1273 52.5269 29.3758 52.5269C29.6243 52.5269 29.8703 52.4775 30.0995 52.3816C30.3288 52.2857 30.5367 52.1452 30.7111 51.9683C30.8856 51.7913 31.0231 51.5815 31.1158 51.3509C31.2084 51.1203 31.2543 50.8737 31.2508 50.6252V34.3752C31.2544 34.1243 31.2076 33.8751 31.1131 33.6426C31.0187 33.4101 30.8785 33.1989 30.7009 33.0215C30.5233 32.8441 30.312 32.7042 30.0793 32.6101C29.8467 32.5159 29.5975 32.4694 29.3465 32.4734ZM19.3465 38.7234C18.8497 38.7311 18.3762 38.9358 18.0301 39.2924C17.6841 39.649 17.4937 40.1283 17.5008 40.6252V50.6252C17.4973 50.8737 17.5432 51.1203 17.6359 51.3509C17.7285 51.5815 17.8661 51.7913 18.0405 51.9683C18.215 52.1452 18.4229 52.2857 18.6521 52.3816C18.8813 52.4775 19.1273 52.5269 19.3758 52.5269C19.6243 52.5269 19.8703 52.4775 20.0995 52.3816C20.3288 52.2857 20.5367 52.1452 20.7111 51.9683C20.8856 51.7913 21.0231 51.5815 21.1158 51.3509C21.2084 51.1203 21.2543 50.8737 21.2508 50.6252V40.6252C21.2544 40.3742 21.2076 40.1251 21.1131 39.8926C21.0187 39.6601 20.8785 39.4489 20.7009 39.2715C20.5233 39.0941 20.312 38.9542 20.0793 38.8601C19.8467 38.7659 19.5975 38.7194 19.3465 38.7234ZM9.34652 46.2234C8.84966 46.2311 8.3762 46.4358 8.03013 46.7924C7.68406 47.149 7.49369 47.6283 7.50081 48.1252V50.6252C7.4973 50.8737 7.5432 51.1203 7.63585 51.3509C7.7285 51.5815 7.86605 51.7913 8.04051 51.9683C8.21497 52.1452 8.42286 52.2857 8.65209 52.3816C8.88132 52.4775 9.12733 52.5269 9.37581 52.5269C9.6243 52.5269 9.8703 52.4775 10.0995 52.3816C10.3288 52.2857 10.5367 52.1452 10.7111 51.9683C10.8856 51.7913 11.0231 51.5815 11.1158 51.3509C11.2084 51.1203 11.2543 50.8737 11.2508 50.6252V48.1252C11.2544 47.8743 11.2076 47.6251 11.1131 47.3926C11.0187 47.1601 10.8785 46.9489 10.7009 46.7715C10.5233 46.5941 10.312 46.4542 10.0793 46.3601C9.84666 46.2659 9.59747 46.2194 9.34652 46.2234Z" fill="#77BC1F"/>
</svg>
