<?xml version="1.0" encoding="UTF-8"?>
<svg id="Layer_2" data-name="Layer 2" xmlns="http://www.w3.org/2000/svg" viewBox="0 0 559.03 476.4">
  <defs>
    <style>
      .cls-1 {
        fill: #fff;
        isolation: isolate;
      }
    </style>
  </defs>
  <g id="Layer_1-2" data-name="Layer 1">
    <path class="cls-1" d="m203.34,377.13c-3.6,0-6.93-1.9-8.76-5l-75.99-128.76c-1.88-3.19-1.88-7.16,0-10.35l75.99-128.74c1.83-3.1,5.16-5,8.76-5h152.38c3.6,0,6.93,1.9,8.76,5l75.99,128.74c1.88,3.19,1.88,7.15,0,10.35l-75.99,128.76c-1.83,3.1-5.16,5-8.76,5h-152.38ZM423.06,5.01c-1.83-3.1-5.16-5.01-8.77-5.01H144.77c-3.6,0-6.93,1.9-8.76,5L1.41,233.02c-1.88,3.19-1.88,7.15,0,10.35l134.59,228.03c1.83,3.1,5.16,5,8.76,5h269.53c3.6,0,6.93-1.9,8.76-5.01l134.56-228.03c1.88-3.19,1.88-7.15,0-10.34L423.06,5.01Z"/>
  </g>
</svg>